# xmcd CD database file
#
# Track frame offsets:
#	150
#	30166
#	50752
#	62837
#	102482
#	126248
#	144753
#	168981
#	191425
#	213251
#	233649
#	277422
#
# Disc length: 3967 seconds
#
# Revision: 0
# Processed by: cddbd v1.5.2PL0 Copyright (c) Steve Scherf et al.
# Submitted via: CDex 1.51
#
DISCID=ab0f7d0c
DTITLE=Duke Robillard - New Blues For Modern Man
DYEAR=1999
DGENRE=Blues
TTITLE0=Pony Blues
TTITLE1=Fishnet
TTITLE2=Don´t Fool With My Love
TTITLE3=Love Sick
TTITLE4=Addiction
TTITLE5=Jumpin´ Rockin´ Rhythm
TTITLE6=Good Man
TTITLE7=You´re The Only One
TTITLE8=Hurt Me
TTITLE9=I Don´t Want To Say Best Wishes
TTITLE10=Big Bottom Blues
TTITLE11=How Long Baby
EXTD=YEAR: 1999
EXTT0=
EXTT1=
EXTT2=
EXTT3=
EXTT4=
EXTT5=
EXTT6=
EXTT7=
EXTT8=
EXTT9=
EXTT10=
EXTT11=
PLAYORDER=
